# xmcd
#
# Track frame offsets:
# 150
# 18117
# 35016
# 63228
#
# Disc length: 1200 seconds
#
#
# Revision: 1
# Processed by: cddbd v1.5.1PL0 Copyright (c) Steve Scherf et al.
# Submitted via: FreeRIP 2.30 
#
DISCID=2804ae04
DTITLE=RUSLANA - DANCE
DYEAR=2004
DGENRE=Country
TTITLE0=DANCE WITH THE WOLVES---WILD VERZION
TTITLE1=DANCE WITH THE WOLVES---POP VERZON
TTITLE2=DANCE WITH THE WOLVES---INSTRUMENTAL
TTITLE3=DATA
EXTD=
EXTT0=
EXTT1=
EXTT2=
EXTT3=
PLAYORDER=
